<?xml version="1.0" standalone="no"?><!DOCTYPE svg PUBLIC "-//W3C//DTD SVG 1.1//EN" "http://www.w3.org/Graphics/SVG/1.1/DTD/svg11.dtd"><svg class="icon" height="512" viewBox="0 0 1024 1024" version="1.1" xmlns="http://www.w3.org/2000/svg"><path d="M433.498851 756.056383c15.36334 0 27.822457-12.37199 27.822457-27.444908L461.321308 658.09694c21.839757-10.368076 37.057886-32.091665 37.057886-57.619785 0-35.460563-29.013188-64.125245-64.880343-64.125245-35.838112 0-64.938427 28.664681-64.938427 64.125245 0 25.440994 15.247171 47.251709 37.057886 57.619785l0 70.514535C405.61831 743.684393 418.135512 756.056383 433.498851 756.056383zM654.916816 855.555064 85.950481 855.555064 85.950481 431.015741l689.230211 0 0 289.667206c34.298874-31.917411 82.305681-12.575286 82.305681-12.575286L857.486372 409.960124c0-32.178791-29.448822-58.345841-65.635441-58.345841l-98.540288 0L693.310644 234.951644c0-128.889418-117.70816-233.296236-262.745058-233.296236-145.124025 0-262.716016 104.406818-262.716016 233.296236l0 116.662639L69.396409 351.614283c-36.244703 0-65.664483 26.138007-65.664483 58.345841l0 466.563431c0 32.091665 29.419779 58.316799 65.664483 58.316799l558.133583-4.327292C602.873139 869.611503 654.916816 855.526022 654.916816 855.555064zM258.199949 234.951644c0-80.359851 81.870047-153.894779 172.423722-153.894779 90.437505 0 172.27851 73.505885 172.27851 153.894779l0 116.662639L258.199949 351.614283 258.199949 234.951644zM951.844579 818.671431l-68.481579 68.452537 51.375705 0c0 56.661391-46.060977 102.693327-102.722369 102.693327-17.309169 0-33.688987-4.240166-47.948722-11.994441l-24.889191 25.00536c21.026575 13.41751 45.973851 21.171786 72.866956 21.171786 75.625968 0 136.934116-61.221022 136.934116-136.934116L1020.239031 887.065884 951.844579 818.671431zM729.206841 887.211095 729.206841 887.211095c0-56.661391 46.002893-102.751411 102.664284-102.751411 17.367254 0 33.718029 4.240166 47.977765 11.994441l24.889191-25.00536c-21.026575-13.388468-46.002893-21.171786-72.895998-21.171786-75.625968 0-136.934116 61.191979-136.934116 136.934116l-51.404748 0 68.452537 68.481579 68.423495-68.481579L729.206841 887.211095z" /></svg>